<?xml version="1.0" standalone="no"?>
<!DOCTYPE svg PUBLIC "-//W3C//DTD SVG 20010904//EN"
 "http://www.w3.org/TR/2001/REC-SVG-20010904/DTD/svg10.dtd">
<svg version="1.0" xmlns="http://www.w3.org/2000/svg"
 width="880.000000pt" height="780.000000pt" viewBox="0 0 880.000000 780.000000"
 preserveAspectRatio="xMidYMid meet">
<g transform="translate(0.000000,780.000000) scale(0.100000,-0.100000)"
fill="#000000" stroke="none">
<path d="M1040 4053 l0 -2078 -25 -120 c-74 -362 -273 -484 -823 -502 l-192
-6 0 -673 0 -673 78 4 c42 3 174 7 292 10 391 9 630 39 975 125 409 101 628
212 846 430 172 171 236 298 278 550 39 240 41 331 41 2021 l0 1639 190 0 190
0 0 -1585 0 -1585 735 0 735 0 2 930 3 929 468 -929 469 -930 41 0 42 0 470
936 470 936 3 -936 2 -936 735 0 735 0 0 2260 0 2260 -737 -2 -737 -3 -487
-930 c-268 -511 -490 -930 -494 -930 -4 0 -228 420 -498 933 l-491 932 -1658
0 -1658 0 0 -2077z"/>
</g>
</svg>
